<?xml version="1.0" encoding="utf-8"?>
<!-- Generator: Adobe Illustrator 23.0.6, SVG Export Plug-In . SVG Version: 6.00 Build 0)  -->
<svg version="1.1" xmlns="http://www.w3.org/2000/svg" xmlns:xlink="http://www.w3.org/1999/xlink" x="0px" y="0px"
	 viewBox="0 0 1080 1080" style="enable-background:new 0 0 1080 1080;" xml:space="preserve">
<style type="text/css">
	.st0{fill:#990537;}
	.st1{fill:#7D8552;}
</style>
<g id="Capa_1">
	<path class="st0" d="M746.91,144.11c-0.05-0.98-0.11-1.95-0.23-2.91c-0.3-2.48-0.79-4.91-1.51-7.24c-1.54-5.04-4.02-9.67-7.2-13.72
		c-0.21-0.27-0.4-0.56-0.62-0.83c-5.99-7.26-14.36-12.48-23.89-14.49c-0.07-0.01-0.13-0.04-0.2-0.05c-2.74-0.56-5.58-0.86-8.48-0.86
		c-0.01,0-0.02,0-0.03,0H376.21c-0.01,0-0.02,0-0.03,0c-2.9,0-5.74,0.3-8.48,0.86c-0.07,0.01-0.13,0.04-0.2,0.05
		c-6.79,1.43-12.99,4.49-18.16,8.75c-0.16,0.13-0.3,0.28-0.45,0.41c-1.91,1.62-3.69,3.39-5.28,5.32c-0.44,0.53-0.83,1.11-1.24,1.66
		c-0.4,0.53-0.82,1.04-1.19,1.59c-0.27,0.39-0.49,0.82-0.74,1.22c-0.47,0.75-0.95,1.48-1.38,2.26c-0.07,0.12-0.12,0.25-0.18,0.38
		c-2.81,5.3-4.5,11.27-4.82,17.6c-0.04,0.72-0.11,1.43-0.11,2.16v328.55c0,7.13,1.79,13.85,4.93,19.75
		c0.07,0.12,0.12,0.25,0.18,0.38c0.42,0.78,0.91,1.52,1.38,2.26c0.25,0.4,0.48,0.83,0.74,1.22c2.17,3.2,4.78,6.08,7.72,8.58
		c0.15,0.13,0.29,0.28,0.45,0.41c2.04,1.68,4.23,3.17,6.56,4.45c0.06,0.03,0.12,0.07,0.18,0.11c0.97,0.53,1.98,0.99,3,1.45
		c0.24,0.1,0.46,0.23,0.69,0.34c2.47,1.04,5.05,1.85,7.73,2.42c0.07,0.01,0.13,0.04,0.2,0.05c2.74,0.56,5.58,0.86,8.48,0.86
		c0.01,0,0.02,0,0.03,0h328.55c0.01,0,0.02,0,0.03,0c2.9,0,5.74-0.3,8.48-0.86c0.07-0.01,0.13-0.04,0.2-0.05
		c4.05-0.85,7.89-2.28,11.42-4.2c0.04-0.02,0.08-0.05,0.13-0.08c9.59-5.26,16.92-14.13,20.16-24.77c0.71-2.33,1.21-4.76,1.51-7.24
		c0.2-1.67,0.33-3.35,0.33-5.07V146.26C747.02,145.54,746.95,144.83,746.91,144.11z M621.93,117.43l-76.95,47.13l-24.2,14.82
		c-7.35-12.08-15.06-22.35-23.1-30.78l2.87-1.76l48.12-29.41H621.93z M505.53,204.48l6.76-4.14l5.37-3.29
		c3.65,6.75,7.2,14.04,10.66,21.77L505.53,204.48z M523.07,231.39c-8.76,0.74-17.16,1.17-25.1,1.22v-17.02L523.07,231.39z
		 M444.02,117.43h78.91l-4.07,2.49l-31.36,19.17c-10.96-9.11-22.48-15.1-34.56-17.79c-4.4-0.98-8.64-1.44-12.74-1.57L444.02,117.43z
		 M384.17,150.02c-0.93,5.48-1.96,15.71,0,27.49v326.13h-7.97c-1.24,0-2.45-0.1-3.65-0.26c-0.33-0.04-0.66-0.1-0.99-0.15
		c-0.94-0.15-1.87-0.35-2.78-0.59c-0.25-0.07-0.51-0.12-0.76-0.2c-1.13-0.34-2.24-0.74-3.31-1.2c-0.18-0.08-0.35-0.17-0.53-0.26
		c-0.91-0.42-1.79-0.88-2.64-1.39c-0.24-0.14-0.48-0.28-0.71-0.43c-2-1.27-3.84-2.77-5.46-4.47c-0.14-0.15-0.27-0.3-0.4-0.44
		c-0.71-0.77-1.37-1.58-2-2.43c-0.1-0.13-0.2-0.26-0.3-0.4c-0.71-1-1.36-2.05-1.94-3.14c0,0,0,0,0,0V132.8
		c0.62-1.17,1.33-2.28,2.1-3.35c0.12-0.17,0.24-0.33,0.37-0.49c0.78-1.03,1.6-2.02,2.51-2.94c0,0,0,0,0,0l27.15,17.1l1.31,0.83
		V150.02z M368.85,118.42C368.86,118.42,368.86,118.42,368.85,118.42c1.09-0.29,2.21-0.51,3.35-0.67c0.14-0.02,0.27-0.04,0.41-0.06
		c1.18-0.16,2.38-0.25,3.6-0.25h41.7l-25.92,15.55L368.85,118.42z M434.35,503.65h-36.75V208.81c0.92,1.2,1.81,2.4,2.84,3.58
		c8.52,9.68,19.86,17.12,33.91,22.38V503.65z M434.35,222.32c-10.39-4.41-18.89-10.18-25.25-17.37c-5.78-6.54-9.32-13.67-11.5-20.61
		V152.4l14.75,9.28l22,13.85V222.32z M404.82,141.06c9.92-5.98,26.51-12.92,45.75-8.59c9.03,2.03,17.86,6.46,26.43,13.02
		l-33.06,20.21L404.82,141.06z M484.53,503.65h-36.75V238.9c10.93,2.73,23.19,4.39,36.75,4.96V503.65z M484.53,232.34
		c-13.74-0.64-26-2.45-36.75-5.4v-42.94l24.24,15.26l12.51,7.87V232.34z M456.64,173.69l30.9-18.88
		c8.11,8.17,15.93,18.38,23.41,30.61l-7.6,4.65l-10.5,6.43L456.64,173.69z M534.72,307.94c-0.11,0.47-0.17,0.96-0.17,1.46
		c0,0,0,0,0,0c0,0.51,0.07,1.01,0.17,1.49V358c-0.05,0.31-0.1,0.62-0.1,0.95c0,0.34,0.05,0.68,0.1,1.01v50.06
		c-0.01,0.17-0.05,0.33-0.05,0.51c0,0.16,0.04,0.31,0.05,0.47v92.65h-36.75V244.07c11.43-0.1,23.69-0.88,36.75-2.35V307.94z
		 M527.44,191.06l47.85-29.31l72.35-44.32h57.12c1.22,0,2.42,0.09,3.6,0.25c0.14,0.02,0.27,0.04,0.4,0.06
		c1.14,0.17,2.25,0.39,3.35,0.67l-56.59,35.63l-112.24,70.67C538.21,212.44,532.93,201.2,527.44,191.06z M730.23,488.29
		C730.23,488.29,730.23,488.29,730.23,488.29c-0.58,1.09-1.23,2.13-1.94,3.13c-0.1,0.14-0.2,0.27-0.3,0.4
		c-0.62,0.85-1.29,1.66-2,2.43c-0.13,0.15-0.26,0.3-0.4,0.44c-1.63,1.71-3.47,3.21-5.47,4.48c-0.23,0.15-0.47,0.29-0.71,0.43
		c-0.85,0.51-1.74,0.97-2.65,1.39c-0.18,0.08-0.35,0.18-0.53,0.25c-1.07,0.47-2.18,0.87-3.31,1.2c-0.25,0.07-0.51,0.13-0.76,0.2
		c-0.91,0.24-1.84,0.44-2.78,0.59c-0.33,0.05-0.66,0.11-0.99,0.15c-0.25,0.03-0.51,0.03-0.76,0.05h-159.5V466.7h182.08V488.29z
		 M730.23,453.27H548.15V417.2l182.08-0.64V453.27z M730.23,403.12l-33.38,0.12l-148.7,0.52v-38.05l182.08,0.6V403.12z
		 M730.23,352.88l-17.5-0.06l-164.58-0.54v-36.12l2.61,0.01l179.48,0.52V352.88z M730.23,303.25l-182.08-0.53v-36.19h182.08V303.25z
		 M730.23,253.09H548.15v-15.57l33.72-21.23c0.05,0,0.09,0.01,0.14,0.01c0.12,0.01,0.23,0.04,0.35,0.04h147.88V253.09z
		 M730.23,202.91H603.13l58.48-36.82c0.23,0.02,0.45,0.07,0.68,0.07h67.95V202.91z M730.23,152.73h-47.4l34.35-21.63l8.08-5.08
		c0.9,0.92,1.73,1.91,2.51,2.94c0.12,0.16,0.25,0.33,0.37,0.49c0.77,1.07,1.48,2.18,2.1,3.35V152.73z"/>
</g>
<g id="Capa_2">
	<g>
		<path class="st1" d="M191.13,530.27l-0.48,2.58c-9.56,51.42-19.57,103.76-29.72,155.56c-9.09,46.3-18.04,93.15-26.66,139.53
			L77.94,530.27H62.25v349.22h17.22V623.47l47.74,255.03h14.15l0.5-2.56c9.37-48.55,18.54-96.49,27.25-142.47
			c6.9-36.41,13.9-73.16,20.99-110.26v256.28h16.23V530.27H191.13z"/>
		<g>
			<path class="st1" d="M332.13,631.03c-4.89-3.84-10.8-6.93-17.55-9.18c-6.74-2.25-13.99-3.39-21.56-3.39
				c-7.9,0-15.32,1.14-22.06,3.39c-6.77,2.26-12.67,5.35-17.55,9.18c-4.94,3.89-8.96,8.54-11.94,13.81
				c-3.07,5.41-4.63,11.1-4.63,16.92v29.42h17.22v-29.42c0-7.65,3.58-14.21,10.95-20.07c7.48-5.96,16.91-8.98,28.01-8.98
				c10.78,0,20.13,3.03,27.79,9c7.52,5.87,11.17,12.43,11.17,20.06v71.54c-4.28-3.19-9.04-5.89-14.21-8.05
				c-7.46-3.12-15.79-4.7-24.76-4.7c-7.89,0-15.31,1.14-22.06,3.38c-6.77,2.26-12.67,5.35-17.55,9.18
				c-4.94,3.89-8.96,8.53-11.94,13.81c-3.07,5.41-4.63,11.1-4.63,16.92v71.85c0,12.23,5.59,22.66,16.61,31.01
				c10.75,8.15,24.06,12.29,39.57,12.29c8.95,0,17.26-1.49,24.7-4.43c5.18-2.05,9.96-4.68,14.27-7.85v12.28h16.72V661.77
				c0-5.8-1.56-11.49-4.62-16.92C341.08,639.57,337.06,634.92,332.13,631.03z M331.98,763.84v71.85c0,7.95-3.64,14.58-11.14,20.28
				c-7.66,5.82-17.02,8.77-27.82,8.77c-11.12,0-20.56-2.95-28.04-8.75l0,0c-7.34-5.69-10.91-12.33-10.91-20.3v-71.85
				c0-7.65,3.58-14.21,10.95-20.07c7.48-5.96,16.9-8.98,28.01-8.98c10.79,0,20.14,3.03,27.79,9
				C328.32,749.66,331.98,756.22,331.98,763.84z"/>
			<path class="st1" d="M471.19,630.98c-4.31-3.06-9.14-5.75-14.42-8.04c-7.64-3.29-15.89-4.97-24.54-4.97
				c-7.89,0-15.31,1.14-22.06,3.38c-6.77,2.26-12.67,5.35-17.55,9.18c-4.94,3.88-8.96,8.53-11.94,13.81
				c-3.07,5.41-4.63,11.1-4.63,16.92v98.11c0,12.57,5.6,23.09,16.64,31.28c10.74,7.97,24.04,12.02,39.54,12.02
				c8.63,0,16.87-1.58,24.49-4.7c5.3-2.17,10.15-4.79,14.48-7.84v57.44c0,7.63-3.66,14.18-11.17,20.05c-7.66,5.97-17.01,9-27.79,9
				c-11.07,0-20.48-3.17-27.95-9.42c-7.41-6.2-11.01-13.43-11.01-22.11v-3.16h-17.22v3.16c0,6.12,1.55,12.05,4.6,17.62
				c2.98,5.45,6.99,10.26,11.92,14.3c4.88,4.01,10.78,7.27,17.54,9.7c6.77,2.42,14.22,3.66,22.12,3.66c7.56,0,14.82-1.14,21.57-3.38
				c6.73-2.25,12.62-5.24,17.49-8.89c4.93-3.7,8.96-8.18,11.98-13.32l0,0c3.08-5.27,4.65-11.05,4.65-17.2V617.97h-16.72V630.98z
				 M471.19,661.27v98.11c0,7.95-3.64,14.58-11.14,20.28c-7.66,5.82-17.02,8.77-27.82,8.77c-11.13,0-20.56-2.94-28.04-8.75l0,0
				c-7.34-5.69-10.91-12.33-10.91-20.3v-98.11c0-7.65,3.58-14.22,10.95-20.08c7.48-5.95,16.91-8.97,28.01-8.97
				c10.78,0,20.14,3.03,27.79,8.99C467.53,647.08,471.19,653.64,471.19,661.27z"/>
			<path class="st1" d="M617.32,630.54c-4.89-3.83-10.8-6.92-17.55-9.18c-6.74-2.24-14-3.38-21.56-3.38
				c-8.98,0-17.41,1.67-25.04,4.97c-5.17,2.24-9.83,4.87-13.92,7.85v-12.82h-17.22v260.52h17.22V661.27
				c0-7.65,3.58-14.22,10.95-20.08c7.48-5.95,16.91-8.97,28.01-8.97c10.78,0,20.14,3.03,27.79,8.99
				c7.52,5.87,11.17,12.43,11.17,20.06v217.22h16.72V661.27c0-5.81-1.56-11.5-4.63-16.92C626.26,639.06,622.25,634.42,617.32,630.54
				z"/>
			<path class="st1" d="M762.85,630.54c-4.89-3.83-10.8-6.92-17.55-9.18c-6.74-2.24-14-3.38-21.56-3.38
				c-7.89,0-15.31,1.14-22.06,3.38c-6.77,2.26-12.67,5.35-17.55,9.18c-4.94,3.88-8.96,8.53-11.94,13.81
				c-3.07,5.41-4.63,11.1-4.63,16.92V835.2c0,12.57,5.6,23.09,16.64,31.28c10.74,7.97,24.04,12.02,39.54,12.02
				c15.5,0,28.73-4.05,39.32-12.03c10.86-8.19,16.37-18.71,16.37-31.27V661.27c0-5.81-1.56-11.5-4.63-16.92
				C771.79,639.06,767.78,634.42,762.85,630.54z M751.55,855.48c-7.66,5.82-17.02,8.77-27.82,8.77c-11.13,0-20.56-2.94-28.04-8.75
				l0,0c-7.34-5.69-10.91-12.33-10.91-20.3V661.27c0-7.65,3.58-14.22,10.95-20.08c7.48-5.95,16.91-8.97,28.01-8.97
				c10.78,0,20.14,3.03,27.79,8.99c7.52,5.87,11.17,12.43,11.17,20.06V835.2C762.69,843.14,759.05,849.78,751.55,855.48z"/>
			<rect x="812.98" y="530.27" class="st1" width="16.72" height="348.23"/>
			<rect x="863.27" y="617.97" class="st1" width="16.72" height="260.52"/>
			<rect x="863.27" y="552.07" class="st1" width="16.72" height="46.45"/>
			<path class="st1" d="M1014.09,644.85c-3-5.28-7.01-9.93-11.95-13.81c-4.89-3.84-10.8-6.93-17.55-9.18
				c-6.74-2.25-13.99-3.39-21.56-3.39c-7.9,0-15.32,1.14-22.06,3.39c-6.77,2.26-12.67,5.35-17.55,9.18
				c-4.94,3.89-8.96,8.54-11.94,13.81c-3.07,5.41-4.63,11.1-4.63,16.92v29.42h17.22v-29.42c0-7.65,3.58-14.21,10.95-20.07
				c7.48-5.96,16.91-8.98,28.01-8.98c10.78,0,20.13,3.03,27.79,9c7.52,5.87,11.17,12.43,11.17,20.06v71.54
				c-4.28-3.19-9.04-5.89-14.21-8.05c-7.46-3.12-15.79-4.7-24.76-4.7c-7.89,0-15.31,1.14-22.06,3.38
				c-6.77,2.26-12.67,5.35-17.55,9.18c-4.94,3.89-8.96,8.53-11.94,13.81c-3.07,5.41-4.63,11.1-4.63,16.92v71.85
				c0,12.23,5.59,22.66,16.61,31.01c10.75,8.15,24.06,12.29,39.57,12.29c8.95,0,17.26-1.49,24.7-4.43
				c5.18-2.05,9.96-4.68,14.27-7.85v12.28h16.72V661.77C1018.71,655.96,1017.15,650.27,1014.09,644.85z M1001.99,763.84v71.85
				c0,7.95-3.64,14.58-11.14,20.28c-7.66,5.82-17.02,8.77-27.82,8.77c-11.12,0-20.56-2.95-28.04-8.75l0,0
				c-7.34-5.69-10.91-12.33-10.91-20.3v-71.85c0-7.65,3.58-14.21,10.95-20.07c7.48-5.96,16.9-8.98,28.01-8.98
				c10.79,0,20.14,3.03,27.79,9C998.33,749.66,1001.99,756.22,1001.99,763.84z"/>
		</g>
	</g>
</g>
<g id="Capa_3">
	<g>
		<path class="st1" d="M101.12,968.41v7.07H62.88v-64.15h38.25v7.07H69.94v21.29h25.14v7.07H69.94v21.65H101.12z"/>
		<path class="st1" d="M211.59,976.59c-5.28,0-10.07-1.25-14.36-3.76c-5.19-3.01-8.62-7.35-10.29-13.02l6.71-1.97
			c1.17,3.99,3.59,7.04,7.29,9.13c3.1,1.76,6.66,2.64,10.69,2.64c0.62,0,1.16-0.01,1.61-0.04c0.44-0.03,0.98-0.1,1.61-0.22
			c1.76-0.27,3.35-0.73,4.78-1.39c4.17-1.91,6.44-5.17,6.8-9.8c0.18-2.41-0.54-4.56-2.15-6.44c-2.5-2.92-6.53-4.56-12.08-4.92
			c-9.3-0.63-16.04-2.8-20.22-6.53c-3.16-2.83-4.74-6.47-4.74-10.91c0-5.99,2.37-10.79,7.11-14.4c4.27-3.28,9.44-4.92,15.52-4.92
			c7.19,0,13.2,2.55,18.03,7.65c1.52,1.64,2.85,3.44,3.98,5.41c0.36,0.63,0.81,1.54,1.34,2.73l-6.53,2.46
			c-0.39-0.83-0.85-1.72-1.39-2.66c-0.54-0.94-1.37-1.98-2.5-3.11c-3.49-3.67-7.8-5.5-12.93-5.5c-1.55,0-3.13,0.19-4.74,0.58
			c-1.91,0.42-3.61,1.06-5.1,1.92c-3.88,2.24-5.82,5.52-5.82,9.84c0,6.18,6.16,9.66,18.48,10.47c7.45,0.51,13.07,2.95,16.86,7.34
			c2.89,3.34,4.17,7.18,3.85,11.54c-0.48,5.82-2.97,10.35-7.47,13.6c-3.97,2.86-8.72,4.29-14.27,4.29H211.59z"/>
		<path class="st1" d="M344.32,911.33c6.2,0,11.51,2.21,15.92,6.62c4.41,4.38,6.62,9.69,6.62,15.92c0,6.2-2.21,11.51-6.62,15.92
			c-4.41,4.41-9.72,6.62-15.92,6.62H328.8v19.06h-7.07v-64.15H344.32z M344.32,949.35c4.27,0,7.9-1.51,10.91-4.52
			c3.04-3.04,4.57-6.7,4.57-10.96c0-4.26-1.52-7.92-4.57-10.96c-3.01-3.01-6.65-4.52-10.91-4.52H328.8v30.95H344.32z"/>
		<path class="st1" d="M492.72,975.48h-7.6l-4.78-11.85h-27.11l-4.78,11.85h-7.6l25.94-64.19L492.72,975.48z M477.47,956.6
			l-10.69-26.48l-10.69,26.48H477.47z"/>
		<path class="st1" d="M606.85,969.61c4.98,0,9.59-1.31,13.82-3.94c4.12-2.56,7.29-5.98,9.53-10.24l6.44,2.77
			c-2.8,5.55-6.83,9.97-12.08,13.29c-5.4,3.4-11.3,5.1-17.71,5.1c-4.5,0-8.81-0.86-12.93-2.59c-3.99-1.7-7.53-4.09-10.6-7.16
			c-3.07-3.07-5.46-6.61-7.16-10.6c-1.73-4.12-2.6-8.42-2.6-12.93c0-4.5,0.87-8.83,2.6-12.97c1.7-3.97,4.08-7.49,7.16-10.56
			c3.07-3.07,6.6-5.46,10.6-7.16c4.12-1.73,8.42-2.6,12.93-2.6c6.41,0,12.32,1.7,17.71,5.1c5.25,3.31,9.28,7.74,12.08,13.28
			l-6.44,2.77c-2.24-4.29-5.41-7.71-9.53-10.25c-4.24-2.62-8.84-3.94-13.82-3.94c-7.24,0-13.45,2.57-18.61,7.69
			c-5.13,5.16-7.69,11.36-7.69,18.61c0,7.25,2.57,13.45,7.69,18.61C593.4,967.05,599.61,969.61,606.85,969.61z"/>
		<path class="st1" d="M722.28,975.48v-64.15h7.07v64.15H722.28z"/>
		<path class="st1" d="M838.38,974c-3.97-1.7-7.49-4.09-10.56-7.16c-3.07-3.07-5.46-6.59-7.16-10.56
			c-1.76-4.15-2.64-8.47-2.64-12.98c0-4.5,0.88-8.81,2.64-12.93c1.7-3.99,4.08-7.53,7.16-10.6c3.07-3.07,6.59-5.44,10.56-7.11
			c4.12-1.76,8.44-2.64,12.97-2.64c4.5,0,8.81,0.88,12.93,2.64c3.97,1.67,7.48,4.04,10.56,7.11c3.1,3.07,5.49,6.6,7.16,10.6
			c1.76,4.12,2.64,8.42,2.64,12.93c0,4.5-0.88,8.83-2.64,12.98c-1.67,3.96-4.06,7.48-7.16,10.56c-3.07,3.07-6.59,5.45-10.56,7.16
			c-4.12,1.73-8.42,2.59-12.93,2.59C846.82,976.59,842.5,975.73,838.38,974z M832.74,924.7c-5.16,5.16-7.74,11.36-7.74,18.61
			c0,7.25,2.58,13.45,7.74,18.61c5.13,5.13,11.33,7.69,18.61,7.69c7.25,0,13.43-2.56,18.57-7.69c5.16-5.16,7.74-11.36,7.74-18.61
			c0-7.24-2.58-13.45-7.74-18.61c-5.13-5.13-11.32-7.69-18.57-7.69C844.08,917.01,837.87,919.58,832.74,924.7z"/>
		<path class="st1" d="M996.44,976.59c-5.28,0-10.07-1.25-14.36-3.76c-5.19-3.01-8.62-7.35-10.29-13.02l6.71-1.97
			c1.17,3.99,3.59,7.04,7.29,9.13c3.1,1.76,6.66,2.64,10.69,2.64c0.62,0,1.16-0.01,1.61-0.04c0.44-0.03,0.98-0.1,1.61-0.22
			c1.76-0.27,3.35-0.73,4.78-1.39c4.17-1.91,6.44-5.17,6.8-9.8c0.18-2.41-0.54-4.56-2.15-6.44c-2.51-2.92-6.53-4.56-12.08-4.92
			c-9.3-0.63-16.04-2.8-20.22-6.53c-3.16-2.83-4.74-6.47-4.74-10.91c0-5.99,2.37-10.79,7.11-14.4c4.27-3.28,9.44-4.92,15.52-4.92
			c7.19,0,13.2,2.55,18.03,7.65c1.52,1.64,2.85,3.44,3.98,5.41c0.36,0.63,0.81,1.54,1.34,2.73l-6.53,2.46
			c-0.39-0.83-0.85-1.72-1.39-2.66c-0.54-0.94-1.37-1.98-2.51-3.11c-3.49-3.67-7.8-5.5-12.93-5.5c-1.55,0-3.13,0.19-4.74,0.58
			c-1.91,0.42-3.61,1.06-5.1,1.92c-3.88,2.24-5.82,5.52-5.82,9.84c0,6.18,6.16,9.66,18.48,10.47c7.45,0.51,13.07,2.95,16.86,7.34
			c2.89,3.34,4.17,7.18,3.85,11.54c-0.48,5.82-2.97,10.35-7.47,13.6c-3.97,2.86-8.72,4.29-14.27,4.29H996.44z"/>
	</g>
</g>
</svg>
